<mxfile host="65bd71144e">
    <diagram id="PLNGbtFlkg2upx5_pPX7" name="Overview">
        <mxGraphModel dx="1631" dy="922" grid="1" gridSize="10" guides="1" tooltips="1" connect="1" arrows="1" fold="1" page="1" pageScale="1" pageWidth="1100" pageHeight="850" math="0" shadow="0">
            <root>
                <mxCell id="0"/>
                <mxCell id="1" parent="0"/>
                <mxCell id="15" value="" style="rounded=0;whiteSpace=wrap;html=1;dashed=1;align=left;" vertex="1" parent="1">
                    <mxGeometry x="20" y="20" width="690" height="810" as="geometry"/>
                </mxCell>
                <mxCell id="6" value="Sever: SQL08" style="swimlane;startSize=23;dashed=1;" vertex="1" parent="1">
                    <mxGeometry x="30" y="60" width="240" height="270" as="geometry">
                        <mxRectangle x="30" y="180" width="80" height="30" as="alternateBounds"/>
                    </mxGeometry>
                </mxCell>
                <mxCell id="2" value="SQL Server: SQL08" style="swimlane;startSize=23;" vertex="1" parent="6">
                    <mxGeometry x="20" y="40" width="200" height="190" as="geometry">
                        <mxRectangle x="30" y="180" width="80" height="30" as="alternateBounds"/>
                    </mxGeometry>
                </mxCell>
                <mxCell id="3" value="&lt;b&gt;Database: SysproDocument&lt;/b&gt;" style="rounded=0;whiteSpace=wrap;html=1;align=center;" vertex="1" parent="2">
                    <mxGeometry x="10" y="90" width="180" height="30" as="geometry"/>
                </mxCell>
                <mxCell id="8" value="&lt;b&gt;Database: SysproCompany100&lt;/b&gt;" style="rounded=0;whiteSpace=wrap;html=1;align=center;" vertex="1" parent="2">
                    <mxGeometry x="10" y="40" width="180" height="30" as="geometry"/>
                </mxCell>
                <mxCell id="9" value="&lt;b&gt;Database: NotifiyEvents&lt;/b&gt;" style="rounded=0;whiteSpace=wrap;html=1;align=center;" vertex="1" parent="2">
                    <mxGeometry x="10" y="140" width="180" height="30" as="geometry"/>
                </mxCell>
                <mxCell id="10" value="Sever: GWCApps" style="swimlane;startSize=23;dashed=1;" vertex="1" parent="1">
                    <mxGeometry x="310" y="350" width="370" height="380" as="geometry">
                        <mxRectangle x="30" y="180" width="80" height="30" as="alternateBounds"/>
                    </mxGeometry>
                </mxCell>
                <mxCell id="22" value="&lt;b&gt;&lt;font style=&quot;font-size: 16px;&quot;&gt;ASP.NET WEB API:&lt;br&gt;GW SendGrid EndPoints&lt;br&gt;&lt;/font&gt;&lt;/b&gt;" style="rounded=0;whiteSpace=wrap;html=1;" vertex="1" parent="10">
                    <mxGeometry x="100" y="220" width="170" height="60" as="geometry"/>
                </mxCell>
                <mxCell id="21" value="&lt;b&gt;&lt;font style=&quot;font-size: 16px;&quot;&gt;.Net Service:&lt;br&gt;Invoice Automation&lt;br&gt;&lt;/font&gt;&lt;/b&gt;" style="rounded=0;whiteSpace=wrap;html=1;" vertex="1" parent="10">
                    <mxGeometry x="100" y="90" width="170" height="60" as="geometry"/>
                </mxCell>
                <mxCell id="16" value="In Network" style="text;strokeColor=none;fillColor=none;html=1;fontSize=24;fontStyle=1;verticalAlign=middle;align=center;dashed=1;" vertex="1" parent="1">
                    <mxGeometry x="50" y="20" width="100" height="40" as="geometry"/>
                </mxCell>
                <mxCell id="17" value="" style="rounded=0;whiteSpace=wrap;html=1;dashed=1;align=left;" vertex="1" parent="1">
                    <mxGeometry x="750" y="20" width="330" height="810" as="geometry"/>
                </mxCell>
                <mxCell id="18" value="Out of Network" style="text;strokeColor=none;fillColor=none;html=1;fontSize=24;fontStyle=1;verticalAlign=middle;align=center;dashed=1;" vertex="1" parent="1">
                    <mxGeometry x="810" y="20" width="100" height="40" as="geometry"/>
                </mxCell>
                <mxCell id="19" value="Sever: GWCApps" style="swimlane;startSize=23;dashed=1;" vertex="1" parent="1">
                    <mxGeometry x="310" y="60" width="370" height="270" as="geometry">
                        <mxRectangle x="30" y="180" width="80" height="30" as="alternateBounds"/>
                    </mxGeometry>
                </mxCell>
                <mxCell id="20" value="&lt;b&gt;&lt;font style=&quot;font-size: 16px;&quot;&gt;Syspro 8&lt;/font&gt;&lt;/b&gt;" style="rounded=0;whiteSpace=wrap;html=1;" vertex="1" parent="19">
                    <mxGeometry x="100" y="50" width="170" height="60" as="geometry"/>
                </mxCell>
                <mxCell id="25" style="edgeStyle=none;html=1;exitX=0;exitY=0.5;exitDx=0;exitDy=0;entryX=0.458;entryY=0.939;entryDx=0;entryDy=0;entryPerimeter=0;fontSize=16;startArrow=block;startFill=1;" edge="1" parent="1" source="22" target="9">
                    <mxGeometry relative="1" as="geometry">
                        <Array as="points">
                            <mxPoint x="142" y="600"/>
                        </Array>
                    </mxGeometry>
                </mxCell>
            </root>
        </mxGraphModel>
    </diagram>
</mxfile>